{"asset":{"version":"2.0"},"scenes":[{"nodes":[0]}],"nodes":[{"mesh":0}],"meshes":[{"primitives":[{"attributes":{"POSITION":0,"NORMAL":1},"indices":2,"material":0}]}],"materials":[{"pbrMetallicRoughness":{"baseColorFactor":[0.85,0.85,0.85,1.0],"metallicFactor":0.0,"roughnessFactor":0.8},"doubleSided":false}],"buffers":[{"byteLength":648,"uri":"data:application/octet-stream;base64,"}],"bufferViews":[{"buffer":0,"byteOffset":0,"byteLength":288,"target":34962},{"buffer":0,"byteOffset":288,"byteLength":288,"target":34962},{"buffer":0,"byteOffset":576,"byteLength":72,"target":34963}],"accessors":[{"bufferView":0,"byteOffset":0,"componentType":5126,"count":24,"type":"VEC3","min":[-1.0,-0.45,-0.45],"max":[1.0,0.45,0.45]},{"bufferView":1,"byteOffset":0,"componentType":5126,"count":24,"type":"VEC3"},{"bufferView":2,"byteOffset":0,"componentType":5123,"count":36,"type":"SCALAR"}]}